<?xml version="1.0" encoding="utf-8"?>
<!-- Generator: Adobe Illustrator 25.4.1, SVG Export Plug-In . SVG Version: 6.00 Build 0)  -->
<svg version="1.1" id="Layer_1" xmlns="http://www.w3.org/2000/svg" xmlns:xlink="http://www.w3.org/1999/xlink" x="0px" y="0px"
	 viewBox="0 0 24 24" style="enable-background:new 0 0 24 24;" xml:space="preserve">
<style type="text/css">
	.st0{fill:#585858;}
</style>
<g>
	<path class="st0" d="M24,14v-4h-4.3c-0.2-0.7-0.5-1.4-0.8-2l3-3l-2.8-2.8l-3,3c-0.6-0.4-1.3-0.7-2-0.8V0h-4v4.3
		C9.3,4.5,8.6,4.8,8,5.1l-3-3L2.1,4.9l3,3c-0.4,0.6-0.7,1.3-0.8,2H0v4h4.3c0.2,0.7,0.5,1.4,0.8,2l-3,3l2.8,2.8l3-3
		c0.6,0.4,1.3,0.7,2,0.9V24h4v-4.3c0.7-0.2,1.4-0.5,2-0.9l3,3l2.8-2.8l-3-3c0.4-0.6,0.7-1.3,0.8-2L24,14L24,14z M12,16
		c-2.2,0-4-1.8-4-4c0-2.2,1.8-4,4-4s4,1.8,4,4S14.2,16,12,16z"/>
</g>
</svg>
